<?xml version="1.0" encoding="utf-8"?>
<!-- Generator: Adobe Illustrator 24.3.0, SVG Export Plug-In . SVG Version: 6.00 Build 0)  -->
<svg
	version="1.1"
	id="レイヤー_1"
	xmlns="http://www.w3.org/2000/svg"
	xmlns:xlink="http://www.w3.org/1999/xlink"
	x="0px"
	y="0px"
	viewBox="0 0 30 30"
	style="enable-background:new 0 0 30 30;"
	xml:space="preserve"
>
<style type="text/css">
	.st0{fill:#6A3906;}
	.st1{fill:none;stroke:#6A3906;stroke-miterlimit:10;}
</style>
<g>
	<path class="st0" d="M25.4,13c-0.43-1.69-1.06-3.3-1.87-4.81C23.36,7.87,23.18,7.55,23,7.24c-0.46,0.35-0.9,0.72-1.33,1.11
		c-0.82,0.75-1.59,1.56-2.29,2.43c-0.24,0.3-0.48,0.62-0.71,0.93c0.39,0.07,0.78,0.15,1.17,0.24c1.34,0.32,2.64,0.76,3.87,1.31
		c0.68,0.31,1.34,0.65,1.99,1.02C25.61,13.85,25.51,13.42,25.4,13z M20.57,11.06c0.51-0.6,1.06-1.17,1.64-1.71
		c0.43,0.85,0.8,1.73,1.11,2.64C22.43,11.62,21.51,11.3,20.57,11.06z"/>
	<path class="st0" d="M26.06,18.28c0-0.81-0.05-1.61-0.13-2.4c-0.03-0.24-0.17-0.45-0.37-0.57c-0.5-0.29-1.02-0.56-1.55-0.81
		c-1.53-0.72-3.15-1.26-4.85-1.6c-0.38-0.08-0.77-0.14-1.15-0.2c-0.92,1.45-1.68,3.01-2.23,4.66c0,0,0,0,0,0
		c0.32,0.1,0.63,0.21,0.93,0.34c1.26,0.55,2.35,1.41,3.18,2.49c0.08,0.1,0.22,0.13,0.33,0.06c0.59-0.37,1.22-0.69,1.87-0.96
		c0.04-0.02,0.09-0.01,0.13,0.02c0.73,0.71,1.32,1.56,1.74,2.51c0.07,0.15,0.3,0.12,0.32-0.04c0.13-0.94,0.19-1.89,0.19-2.86
		c0-0.12,0-0.24,0-0.36c0.52-0.11,1.06-0.19,1.6-0.23C26.06,18.31,26.06,18.29,26.06,18.28z M20.24,17.91
		c-0.37,0-0.69-0.17-0.91-0.43c-0.24-0.28-0.35-0.68-0.23-1.09c0.1-0.39,0.43-0.72,0.82-0.82c0.8-0.21,1.52,0.38,1.52,1.15
		c0,0.64-0.51,1.17-1.15,1.19C20.27,17.91,20.25,17.91,20.24,17.91z"/>
	<path class="st0" d="M15.79,21.11c-0.16-0.13-0.35-0.23-0.56-0.26c-0.07-0.01-0.14-0.02-0.21-0.02c-0.03,0-0.07,0-0.1,0
		c-0.17,0.01-0.34,0.07-0.48,0.15c-0.36,0.2-0.61,0.59-0.61,1.04c0,0.54,0.36,1,0.85,1.14c0.01,0,0.02,0,0.02,0.01
		c0.1,0.03,0.2,0.04,0.31,0.04c0.14,0,0.27-0.02,0.39-0.07c0.04-0.01,0.08-0.03,0.11-0.05c0.4-0.19,0.68-0.6,0.68-1.08
		C16.21,21.66,16.05,21.33,15.79,21.11z"/>
	<path class="st0" d="M14.37,17.08c-0.51-1.57-1.2-3.05-2.04-4.44c-0.4,0.05-0.79,0.11-1.17,0.18c-1.87,0.33-3.66,0.91-5.33,1.7
		c-0.6,0.28-1.18,0.59-1.74,0.92c-0.11,0.93-0.16,1.88-0.14,2.85c0,0,0,0,0,0c0.49,0.01,0.97,0.05,1.44,0.12
		c0,0.17-0.01,0.34-0.01,0.52c0,0.98,0.07,1.94,0.19,2.89c0.03,0.21,0.31,0.25,0.4,0.06c0.46-1.04,1.14-1.97,1.97-2.72
		c0.06-0.05,0.15-0.07,0.22-0.04c0.64,0.24,1.25,0.52,1.84,0.85c0.08,0.04,0.18,0.03,0.24-0.04c0.87-1.05,2.01-1.87,3.3-2.37
		c0.29-0.11,0.59-0.21,0.89-0.29C14.4,17.19,14.39,17.13,14.37,17.08z M11.11,17.36c-0.22,0.29-0.56,0.47-0.95,0.47
		c-0.08,0-0.16-0.01-0.23-0.02c-0.64-0.12-1.1-0.76-0.93-1.47c0.1-0.41,0.43-0.75,0.84-0.85c0.8-0.21,1.51,0.39,1.51,1.15
		C11.35,16.91,11.26,17.15,11.11,17.36z"/>
	<path class="st0" d="M11.02,10.74c-0.78-1.02-1.65-1.97-2.6-2.83C7.99,7.52,7.55,7.14,7.08,6.79c-0.21,0.34-0.41,0.68-0.6,1.03
		c-0.9,1.66-1.58,3.46-2.01,5.35c-0.08,0.35-0.15,0.7-0.21,1.06c0.6-0.35,1.22-0.67,1.86-0.96c1.38-0.62,2.83-1.1,4.34-1.43
		c0.4-0.08,0.8-0.16,1.21-0.22C11.46,11.33,11.25,11.03,11.02,10.74z M6.46,12.17c0.37-1.12,0.83-2.19,1.37-3.22
		c0.7,0.64,1.36,1.33,1.97,2.06C8.64,11.31,7.53,11.7,6.46,12.17z"/>
</g>
<circle class="st1" cx="15" cy="15" r="13.5"/>
</svg>
